<?xml version="1.0" standalone="no"?>
<!DOCTYPE svg PUBLIC "-//W3C//DTD SVG 20010904//EN"
 "http://www.w3.org/TR/2001/REC-SVG-20010904/DTD/svg10.dtd">
<svg version="1.0" xmlns="http://www.w3.org/2000/svg"
 width="120.000000pt" height="32.000000pt" viewBox="0 0 120.000000 32.000000"
 preserveAspectRatio="xMidYMid meet">

<g transform="translate(0.000000,32.000000) scale(0.100000,-0.100000)"
fill="#000000" stroke="none">
<path d="M486 244 c-3 -9 -3 -21 1 -27 10 -16 10 -99 0 -113 -13 -19 4 -44 29
-44 13 0 24 3 24 8 0 4 18 7 40 7 22 0 40 -3 40 -7 0 -5 11 -8 25 -8 28 0 43
23 29 43 -11 14 -11 97 -1 114 17 27 -24 59 -46 37 -9 -10 -87 -11 -87 -1 0
14 -48 7 -54 -9z m148 -35 c14 -17 26 -40 25 -52 0 -20 -1 -20 -8 -4 -6 15 -9
16 -17 5 -6 -7 -14 -21 -17 -30 -4 -10 -11 -18 -16 -18 -6 0 -8 6 -5 14 3 8
-3 16 -16 19 -18 5 -21 2 -17 -14 6 -24 -11 -25 -20 -1 -3 9 -11 23 -17 30 -8
11 -11 10 -17 -5 -7 -16 -8 -16 -8 3 -1 12 8 33 20 47 17 22 23 25 38 15 10
-6 27 -8 37 -4 16 6 16 9 4 16 -9 6 -10 10 -3 10 6 0 23 -14 37 -31z m-114
-119 c0 -5 -5 -10 -11 -10 -5 0 -7 5 -4 10 3 6 8 10 11 10 2 0 4 -4 4 -10z
m85 0 c-3 -5 -15 -10 -25 -10 -10 0 -22 5 -25 10 -4 6 7 10 25 10 18 0 29 -4
25 -10z m50 0 c3 -5 1 -10 -4 -10 -6 0 -11 5 -11 10 0 6 2 10 4 10 3 0 8 -4
11 -10z"/>
<path d="M524 198 c-7 -12 25 -42 35 -32 3 3 -2 11 -11 18 -10 7 -15 16 -11
19 3 4 4 7 0 7 -3 0 -9 -5 -13 -12z"/>
<path d="M626 202 c2 -3 -4 -11 -14 -18 -9 -7 -14 -15 -11 -18 3 -3 14 1 25 8
13 10 16 17 8 24 -6 5 -9 7 -8 4z"/>
<path d="M687 214 c-14 -14 -7 -34 13 -34 16 0 20 -7 20 -35 0 -24 5 -35 15
-35 11 0 15 11 15 40 0 33 3 40 20 40 11 0 20 5 20 10 0 6 -12 10 -27 10 -16
0 -37 3 -48 6 -11 3 -24 2 -28 -2z"/>
<path d="M435 198 c-2 -7 -5 -26 -7 -43 -4 -45 -32 -39 -36 8 -4 52 -32 51
-32 -2 0 -47 18 -63 62 -59 32 3 33 4 36 56 2 32 -1 52 -8 52 -6 0 -13 -6 -15
-12z"/>
<path d="M810 160 c0 -38 4 -50 15 -50 11 0 15 12 15 50 0 38 -4 50 -15 50
-11 0 -15 -12 -15 -50z"/>
<path d="M864 185 c-15 -23 -15 -27 0 -51 14 -21 24 -25 54 -22 30 2 38 8 40
26 3 17 -2 22 -17 22 -15 0 -19 -5 -14 -16 4 -12 1 -15 -13 -12 -13 2 -19 12
-19 28 0 20 6 26 28 28 39 5 33 22 -8 22 -26 0 -39 -6 -51 -25z"/>
<path d="M980 200 c0 -5 23 -10 50 -10 28 0 50 5 50 10 0 6 -22 10 -50 10 -27
0 -50 -4 -50 -10z"/>
<path d="M1100 161 c0 -39 4 -51 15 -51 9 0 15 9 16 23 l0 22 16 -22 c19 -28
49 -32 38 -5 -4 9 -8 31 -9 47 -1 27 -5 30 -38 33 l-38 3 0 -50z m50 19 c0 -5
-4 -10 -10 -10 -5 0 -10 5 -10 10 0 6 5 10 10 10 6 0 10 -4 10 -10z"/>
<path d="M0 151 c0 -39 4 -51 15 -51 9 0 15 10 16 28 1 27 1 27 8 3 10 -37 29
-36 40 1 l9 33 1 -32 c1 -22 6 -33 16 -33 11 0 15 12 15 50 0 47 -2 50 -25 50
-18 0 -25 -5 -25 -19 0 -29 -18 -35 -22 -9 -2 15 -11 24 -25 26 -21 3 -23 0
-23 -47z"/>
<path d="M140 150 l0 -50 40 0 c22 0 40 5 40 10 0 6 -11 10 -25 10 -14 0 -25
5 -25 10 0 6 9 10 19 10 11 0 23 5 26 10 4 6 -5 10 -19 10 -14 0 -26 5 -26 10
0 6 11 10 25 10 14 0 25 5 25 10 0 6 -18 10 -40 10 l-40 0 0 -50z"/>
<path d="M240 150 c0 -38 4 -50 15 -50 10 0 15 10 15 28 l1 27 20 -27 c33 -44
49 -36 49 22 0 38 -4 50 -15 50 -10 0 -15 -10 -15 -26 l0 -27 -21 27 c-33 42
-49 34 -49 -24z"/>
<path d="M980 160 c0 -5 23 -10 50 -10 28 0 50 5 50 10 0 6 -22 10 -50 10 -27
0 -50 -4 -50 -10z"/>
<path d="M980 120 c0 -5 23 -10 50 -10 28 0 50 5 50 10 0 6 -22 10 -50 10 -27
0 -50 -4 -50 -10z"/>
</g>
</svg>
